<?xml version="1.0" encoding="utf-8" standalone="no"?>
<!DOCTYPE svg PUBLIC "-//W3C//DTD SVG 1.1//EN"
  "http://www.w3.org/Graphics/SVG/1.1/DTD/svg11.dtd">
<svg xmlns:xlink="http://www.w3.org/1999/xlink" width="474.076562pt" height="322.877344pt" viewBox="0 0 474.076562 322.877344" xmlns="http://www.w3.org/2000/svg" version="1.1">
 <metadata>
  <rdf:RDF xmlns:dc="http://purl.org/dc/elements/1.1/" xmlns:cc="http://creativecommons.org/ns#" xmlns:rdf="http://www.w3.org/1999/02/22-rdf-syntax-ns#">
   <cc:Work>
    <dc:type rdf:resource="http://purl.org/dc/dcmitype/StillImage"/>
    <dc:date>2025-11-14T17:25:53.278392</dc:date>
    <dc:format>image/svg+xml</dc:format>
    <dc:creator>
     <cc:Agent>
      <dc:title>Matplotlib v3.10.7, https://matplotlib.org/</dc:title>
     </cc:Agent>
    </dc:creator>
   </cc:Work>
  </rdf:RDF>
 </metadata>
 <defs>
  <style type="text/css">*{stroke-linejoin: round; stroke-linecap: butt}</style>
 </defs>
 <g id="figure_1">
  <g id="patch_1">
   <path d="M 0 322.877344 
L 474.076562 322.877344 
L 474.076562 0 
L 0 0 
z
" style="fill: #ffffff"/>
  </g>
  <g id="axes_1">
   <g id="patch_2">
    <path d="M 26.925 298.999219 
L 458.925 298.999219 
L 458.925 10.999219 
L 26.925 10.999219 
z
" style="fill: #40e0d0; fill-opacity: 0.1"/>
   </g>
   <g id="matplotlib.axis_1">
    <g id="xtick_1">
     <g id="line2d_1">
      <path d="M 26.925 298.999219 
L 26.925 10.999219 
" clip-path="url(#p9398017dbf)" style="fill: none; stroke-dasharray: 4,1.6,0.8,1.6; stroke-dashoffset: 0; stroke: #b2b2b2; stroke-width: 0.8"/>
     </g>
     <g id="line2d_2">
      <defs>
       <path id="maf3db9d0a0" d="M 0 0 
L 0 3.5 
" style="stroke: #000000; stroke-width: 0.8"/>
      </defs>
      <g>
       <use xlink:href="#maf3db9d0a0" x="26.925" y="298.999219" style="stroke: #000000; stroke-width: 0.8"/>
      </g>
     </g>
     <g id="text_1">
      <!-- 0.0 -->
      <g transform="translate(18.973438 313.597656) scale(0.1 -0.1)">
       <defs>
        <path id="DejaVuSans-30" d="M 2034 4250 
Q 1547 4250 1301 3770 
Q 1056 3291 1056 2328 
Q 1056 1369 1301 889 
Q 1547 409 2034 409 
Q 2525 409 2770 889 
Q 3016 1369 3016 2328 
Q 3016 3291 2770 3770 
Q 2525 4250 2034 4250 
z
M 2034 4750 
Q 2819 4750 3233 4129 
Q 3647 3509 3647 2328 
Q 3647 1150 3233 529 
Q 2819 -91 2034 -91 
Q 1250 -91 836 529 
Q 422 1150 422 2328 
Q 422 3509 836 4129 
Q 1250 4750 2034 4750 
z
" transform="scale(0.015625)"/>
        <path id="DejaVuSans-2e" d="M 684 794 
L 1344 794 
L 1344 0 
L 684 0 
L 684 794 
z
" transform="scale(0.015625)"/>
       </defs>
       <use xlink:href="#DejaVuSans-30"/>
       <use xlink:href="#DejaVuSans-2e" transform="translate(63.623047 0)"/>
       <use xlink:href="#DejaVuSans-30" transform="translate(95.410156 0)"/>
      </g>
     </g>
    </g>
    <g id="xtick_2">
     <g id="line2d_3">
      <path d="M 80.925 298.999219 
L 80.925 10.999219 
" clip-path="url(#p9398017dbf)" style="fill: none; stroke-dasharray: 4,1.6,0.8,1.6; stroke-dashoffset: 0; stroke: #b2b2b2; stroke-width: 0.8"/>
     </g>
     <g id="line2d_4">
      <g>
       <use xlink:href="#maf3db9d0a0" x="80.925" y="298.999219" style="stroke: #000000; stroke-width: 0.8"/>
      </g>
     </g>
     <g id="text_2">
      <!-- 0.5 -->
      <g transform="translate(72.973438 313.597656) scale(0.1 -0.1)">
       <defs>
        <path id="DejaVuSans-35" d="M 691 4666 
L 3169 4666 
L 3169 4134 
L 1269 4134 
L 1269 2991 
Q 1406 3038 1543 3061 
Q 1681 3084 1819 3084 
Q 2600 3084 3056 2656 
Q 3513 2228 3513 1497 
Q 3513 744 3044 326 
Q 2575 -91 1722 -91 
Q 1428 -91 1123 -41 
Q 819 9 494 109 
L 494 744 
Q 775 591 1075 516 
Q 1375 441 1709 441 
Q 2250 441 2565 725 
Q 2881 1009 2881 1497 
Q 2881 1984 2565 2268 
Q 2250 2553 1709 2553 
Q 1456 2553 1204 2497 
Q 953 2441 691 2322 
L 691 4666 
z
" transform="scale(0.015625)"/>
       </defs>
       <use xlink:href="#DejaVuSans-30"/>
       <use xlink:href="#DejaVuSans-2e" transform="translate(63.623047 0)"/>
       <use xlink:href="#DejaVuSans-35" transform="translate(95.410156 0)"/>
      </g>
     </g>
    </g>
    <g id="xtick_3">
     <g id="line2d_5">
      <path d="M 134.925 298.999219 
L 134.925 10.999219 
" clip-path="url(#p9398017dbf)" style="fill: none; stroke-dasharray: 4,1.6,0.8,1.6; stroke-dashoffset: 0; stroke: #b2b2b2; stroke-width: 0.8"/>
     </g>
     <g id="line2d_6">
      <g>
       <use xlink:href="#maf3db9d0a0" x="134.925" y="298.999219" style="stroke: #000000; stroke-width: 0.8"/>
      </g>
     </g>
     <g id="text_3">
      <!-- 1.0 -->
      <g transform="translate(126.973438 313.597656) scale(0.1 -0.1)">
       <defs>
        <path id="DejaVuSans-31" d="M 794 531 
L 1825 531 
L 1825 4091 
L 703 3866 
L 703 4441 
L 1819 4666 
L 2450 4666 
L 2450 531 
L 3481 531 
L 3481 0 
L 794 0 
L 794 531 
z
" transform="scale(0.015625)"/>
       </defs>
       <use xlink:href="#DejaVuSans-31"/>
       <use xlink:href="#DejaVuSans-2e" transform="translate(63.623047 0)"/>
       <use xlink:href="#DejaVuSans-30" transform="translate(95.410156 0)"/>
      </g>
     </g>
    </g>
    <g id="xtick_4">
     <g id="line2d_7">
      <path d="M 188.925 298.999219 
L 188.925 10.999219 
" clip-path="url(#p9398017dbf)" style="fill: none; stroke-dasharray: 4,1.6,0.8,1.6; stroke-dashoffset: 0; stroke: #b2b2b2; stroke-width: 0.8"/>
     </g>
     <g id="line2d_8">
      <g>
       <use xlink:href="#maf3db9d0a0" x="188.925" y="298.999219" style="stroke: #000000; stroke-width: 0.8"/>
      </g>
     </g>
     <g id="text_4">
      <!-- 1.5 -->
      <g transform="translate(180.973438 313.597656) scale(0.1 -0.1)">
       <use xlink:href="#DejaVuSans-31"/>
       <use xlink:href="#DejaVuSans-2e" transform="translate(63.623047 0)"/>
       <use xlink:href="#DejaVuSans-35" transform="translate(95.410156 0)"/>
      </g>
     </g>
    </g>
    <g id="xtick_5">
     <g id="line2d_9">
      <path d="M 242.925 298.999219 
L 242.925 10.999219 
" clip-path="url(#p9398017dbf)" style="fill: none; stroke-dasharray: 4,1.6,0.8,1.6; stroke-dashoffset: 0; stroke: #b2b2b2; stroke-width: 0.8"/>
     </g>
     <g id="line2d_10">
      <g>
       <use xlink:href="#maf3db9d0a0" x="242.925" y="298.999219" style="stroke: #000000; stroke-width: 0.8"/>
      </g>
     </g>
     <g id="text_5">
      <!-- 2.0 -->
      <g transform="translate(234.973438 313.597656) scale(0.1 -0.1)">
       <defs>
        <path id="DejaVuSans-32" d="M 1228 531 
L 3431 531 
L 3431 0 
L 469 0 
L 469 531 
Q 828 903 1448 1529 
Q 2069 2156 2228 2338 
Q 2531 2678 2651 2914 
Q 2772 3150 2772 3378 
Q 2772 3750 2511 3984 
Q 2250 4219 1831 4219 
Q 1534 4219 1204 4116 
Q 875 4013 500 3803 
L 500 4441 
Q 881 4594 1212 4672 
Q 1544 4750 1819 4750 
Q 2544 4750 2975 4387 
Q 3406 4025 3406 3419 
Q 3406 3131 3298 2873 
Q 3191 2616 2906 2266 
Q 2828 2175 2409 1742 
Q 1991 1309 1228 531 
z
" transform="scale(0.015625)"/>
       </defs>
       <use xlink:href="#DejaVuSans-32"/>
       <use xlink:href="#DejaVuSans-2e" transform="translate(63.623047 0)"/>
       <use xlink:href="#DejaVuSans-30" transform="translate(95.410156 0)"/>
      </g>
     </g>
    </g>
    <g id="xtick_6">
     <g id="line2d_11">
      <path d="M 296.925 298.999219 
L 296.925 10.999219 
" clip-path="url(#p9398017dbf)" style="fill: none; stroke-dasharray: 4,1.6,0.8,1.6; stroke-dashoffset: 0; stroke: #b2b2b2; stroke-width: 0.8"/>
     </g>
     <g id="line2d_12">
      <g>
       <use xlink:href="#maf3db9d0a0" x="296.925" y="298.999219" style="stroke: #000000; stroke-width: 0.8"/>
      </g>
     </g>
     <g id="text_6">
      <!-- 2.5 -->
      <g transform="translate(288.973437 313.597656) scale(0.1 -0.1)">
       <use xlink:href="#DejaVuSans-32"/>
       <use xlink:href="#DejaVuSans-2e" transform="translate(63.623047 0)"/>
       <use xlink:href="#DejaVuSans-35" transform="translate(95.410156 0)"/>
      </g>
     </g>
    </g>
    <g id="xtick_7">
     <g id="line2d_13">
      <path d="M 350.925 298.999219 
L 350.925 10.999219 
" clip-path="url(#p9398017dbf)" style="fill: none; stroke-dasharray: 4,1.6,0.8,1.6; stroke-dashoffset: 0; stroke: #b2b2b2; stroke-width: 0.8"/>
     </g>
     <g id="line2d_14">
      <g>
       <use xlink:href="#maf3db9d0a0" x="350.925" y="298.999219" style="stroke: #000000; stroke-width: 0.8"/>
      </g>
     </g>
     <g id="text_7">
      <!-- 3.0 -->
      <g transform="translate(342.973437 313.597656) scale(0.1 -0.1)">
       <defs>
        <path id="DejaVuSans-33" d="M 2597 2516 
Q 3050 2419 3304 2112 
Q 3559 1806 3559 1356 
Q 3559 666 3084 287 
Q 2609 -91 1734 -91 
Q 1441 -91 1130 -33 
Q 819 25 488 141 
L 488 750 
Q 750 597 1062 519 
Q 1375 441 1716 441 
Q 2309 441 2620 675 
Q 2931 909 2931 1356 
Q 2931 1769 2642 2001 
Q 2353 2234 1838 2234 
L 1294 2234 
L 1294 2753 
L 1863 2753 
Q 2328 2753 2575 2939 
Q 2822 3125 2822 3475 
Q 2822 3834 2567 4026 
Q 2313 4219 1838 4219 
Q 1578 4219 1281 4162 
Q 984 4106 628 3988 
L 628 4550 
Q 988 4650 1302 4700 
Q 1616 4750 1894 4750 
Q 2613 4750 3031 4423 
Q 3450 4097 3450 3541 
Q 3450 3153 3228 2886 
Q 3006 2619 2597 2516 
z
" transform="scale(0.015625)"/>
       </defs>
       <use xlink:href="#DejaVuSans-33"/>
       <use xlink:href="#DejaVuSans-2e" transform="translate(63.623047 0)"/>
       <use xlink:href="#DejaVuSans-30" transform="translate(95.410156 0)"/>
      </g>
     </g>
    </g>
    <g id="xtick_8">
     <g id="line2d_15">
      <path d="M 404.925 298.999219 
L 404.925 10.999219 
" clip-path="url(#p9398017dbf)" style="fill: none; stroke-dasharray: 4,1.6,0.8,1.6; stroke-dashoffset: 0; stroke: #b2b2b2; stroke-width: 0.8"/>
     </g>
     <g id="line2d_16">
      <g>
       <use xlink:href="#maf3db9d0a0" x="404.925" y="298.999219" style="stroke: #000000; stroke-width: 0.8"/>
      </g>
     </g>
     <g id="text_8">
      <!-- 3.5 -->
      <g transform="translate(396.973437 313.597656) scale(0.1 -0.1)">
       <use xlink:href="#DejaVuSans-33"/>
       <use xlink:href="#DejaVuSans-2e" transform="translate(63.623047 0)"/>
       <use xlink:href="#DejaVuSans-35" transform="translate(95.410156 0)"/>
      </g>
     </g>
    </g>
    <g id="xtick_9">
     <g id="line2d_17">
      <path d="M 458.925 298.999219 
L 458.925 10.999219 
" clip-path="url(#p9398017dbf)" style="fill: none; stroke-dasharray: 4,1.6,0.8,1.6; stroke-dashoffset: 0; stroke: #b2b2b2; stroke-width: 0.8"/>
     </g>
     <g id="line2d_18">
      <g>
       <use xlink:href="#maf3db9d0a0" x="458.925" y="298.999219" style="stroke: #000000; stroke-width: 0.8"/>
      </g>
     </g>
     <g id="text_9">
      <!-- 4.0 -->
      <g transform="translate(450.973437 313.597656) scale(0.1 -0.1)">
       <defs>
        <path id="DejaVuSans-34" d="M 2419 4116 
L 825 1625 
L 2419 1625 
L 2419 4116 
z
M 2253 4666 
L 3047 4666 
L 3047 1625 
L 3713 1625 
L 3713 1100 
L 3047 1100 
L 3047 0 
L 2419 0 
L 2419 1100 
L 313 1100 
L 313 1709 
L 2253 4666 
z
" transform="scale(0.015625)"/>
       </defs>
       <use xlink:href="#DejaVuSans-34"/>
       <use xlink:href="#DejaVuSans-2e" transform="translate(63.623047 0)"/>
       <use xlink:href="#DejaVuSans-30" transform="translate(95.410156 0)"/>
      </g>
     </g>
    </g>
   </g>
   <g id="matplotlib.axis_2">
    <g id="ytick_1">
     <g id="line2d_19">
      <path d="M 26.925 297.210399 
L 458.925 297.210399 
" clip-path="url(#p9398017dbf)" style="fill: none; stroke-dasharray: 4,1.6,0.8,1.6; stroke-dashoffset: 0; stroke: #b2b2b2; stroke-width: 0.8"/>
     </g>
     <g id="line2d_20">
      <defs>
       <path id="m3836321553" d="M 0 0 
L -3.5 0 
" style="stroke: #000000; stroke-width: 0.8"/>
      </defs>
      <g>
       <use xlink:href="#m3836321553" x="26.925" y="297.210399" style="stroke: #000000; stroke-width: 0.8"/>
      </g>
     </g>
     <g id="text_10">
      <!-- 0 -->
      <g transform="translate(13.5625 301.009618) scale(0.1 -0.1)">
       <use xlink:href="#DejaVuSans-30"/>
      </g>
     </g>
    </g>
    <g id="ytick_2">
     <g id="line2d_21">
      <path d="M 26.925 261.434001 
L 458.925 261.434001 
" clip-path="url(#p9398017dbf)" style="fill: none; stroke-dasharray: 4,1.6,0.8,1.6; stroke-dashoffset: 0; stroke: #b2b2b2; stroke-width: 0.8"/>
     </g>
     <g id="line2d_22">
      <g>
       <use xlink:href="#m3836321553" x="26.925" y="261.434001" style="stroke: #000000; stroke-width: 0.8"/>
      </g>
     </g>
     <g id="text_11">
      <!-- 2 -->
      <g transform="translate(13.5625 265.23322) scale(0.1 -0.1)">
       <use xlink:href="#DejaVuSans-32"/>
      </g>
     </g>
    </g>
    <g id="ytick_3">
     <g id="line2d_23">
      <path d="M 26.925 225.657604 
L 458.925 225.657604 
" clip-path="url(#p9398017dbf)" style="fill: none; stroke-dasharray: 4,1.6,0.8,1.6; stroke-dashoffset: 0; stroke: #b2b2b2; stroke-width: 0.8"/>
     </g>
     <g id="line2d_24">
      <g>
       <use xlink:href="#m3836321553" x="26.925" y="225.657604" style="stroke: #000000; stroke-width: 0.8"/>
      </g>
     </g>
     <g id="text_12">
      <!-- 4 -->
      <g transform="translate(13.5625 229.456823) scale(0.1 -0.1)">
       <use xlink:href="#DejaVuSans-34"/>
      </g>
     </g>
    </g>
    <g id="ytick_4">
     <g id="line2d_25">
      <path d="M 26.925 189.881206 
L 458.925 189.881206 
" clip-path="url(#p9398017dbf)" style="fill: none; stroke-dasharray: 4,1.6,0.8,1.6; stroke-dashoffset: 0; stroke: #b2b2b2; stroke-width: 0.8"/>
     </g>
     <g id="line2d_26">
      <g>
       <use xlink:href="#m3836321553" x="26.925" y="189.881206" style="stroke: #000000; stroke-width: 0.8"/>
      </g>
     </g>
     <g id="text_13">
      <!-- 6 -->
      <g transform="translate(13.5625 193.680425) scale(0.1 -0.1)">
       <defs>
        <path id="DejaVuSans-36" d="M 2113 2584 
Q 1688 2584 1439 2293 
Q 1191 2003 1191 1497 
Q 1191 994 1439 701 
Q 1688 409 2113 409 
Q 2538 409 2786 701 
Q 3034 994 3034 1497 
Q 3034 2003 2786 2293 
Q 2538 2584 2113 2584 
z
M 3366 4563 
L 3366 3988 
Q 3128 4100 2886 4159 
Q 2644 4219 2406 4219 
Q 1781 4219 1451 3797 
Q 1122 3375 1075 2522 
Q 1259 2794 1537 2939 
Q 1816 3084 2150 3084 
Q 2853 3084 3261 2657 
Q 3669 2231 3669 1497 
Q 3669 778 3244 343 
Q 2819 -91 2113 -91 
Q 1303 -91 875 529 
Q 447 1150 447 2328 
Q 447 3434 972 4092 
Q 1497 4750 2381 4750 
Q 2619 4750 2861 4703 
Q 3103 4656 3366 4563 
z
" transform="scale(0.015625)"/>
       </defs>
       <use xlink:href="#DejaVuSans-36"/>
      </g>
     </g>
    </g>
    <g id="ytick_5">
     <g id="line2d_27">
      <path d="M 26.925 154.104809 
L 458.925 154.104809 
" clip-path="url(#p9398017dbf)" style="fill: none; stroke-dasharray: 4,1.6,0.8,1.6; stroke-dashoffset: 0; stroke: #b2b2b2; stroke-width: 0.8"/>
     </g>
     <g id="line2d_28">
      <g>
       <use xlink:href="#m3836321553" x="26.925" y="154.104809" style="stroke: #000000; stroke-width: 0.8"/>
      </g>
     </g>
     <g id="text_14">
      <!-- 8 -->
      <g transform="translate(13.5625 157.904028) scale(0.1 -0.1)">
       <defs>
        <path id="DejaVuSans-38" d="M 2034 2216 
Q 1584 2216 1326 1975 
Q 1069 1734 1069 1313 
Q 1069 891 1326 650 
Q 1584 409 2034 409 
Q 2484 409 2743 651 
Q 3003 894 3003 1313 
Q 3003 1734 2745 1975 
Q 2488 2216 2034 2216 
z
M 1403 2484 
Q 997 2584 770 2862 
Q 544 3141 544 3541 
Q 544 4100 942 4425 
Q 1341 4750 2034 4750 
Q 2731 4750 3128 4425 
Q 3525 4100 3525 3541 
Q 3525 3141 3298 2862 
Q 3072 2584 2669 2484 
Q 3125 2378 3379 2068 
Q 3634 1759 3634 1313 
Q 3634 634 3220 271 
Q 2806 -91 2034 -91 
Q 1263 -91 848 271 
Q 434 634 434 1313 
Q 434 1759 690 2068 
Q 947 2378 1403 2484 
z
M 1172 3481 
Q 1172 3119 1398 2916 
Q 1625 2713 2034 2713 
Q 2441 2713 2670 2916 
Q 2900 3119 2900 3481 
Q 2900 3844 2670 4047 
Q 2441 4250 2034 4250 
Q 1625 4250 1398 4047 
Q 1172 3844 1172 3481 
z
" transform="scale(0.015625)"/>
       </defs>
       <use xlink:href="#DejaVuSans-38"/>
      </g>
     </g>
    </g>
    <g id="ytick_6">
     <g id="line2d_29">
      <path d="M 26.925 118.328411 
L 458.925 118.328411 
" clip-path="url(#p9398017dbf)" style="fill: none; stroke-dasharray: 4,1.6,0.8,1.6; stroke-dashoffset: 0; stroke: #b2b2b2; stroke-width: 0.8"/>
     </g>
     <g id="line2d_30">
      <g>
       <use xlink:href="#m3836321553" x="26.925" y="118.328411" style="stroke: #000000; stroke-width: 0.8"/>
      </g>
     </g>
     <g id="text_15">
      <!-- 10 -->
      <g transform="translate(7.2 122.12763) scale(0.1 -0.1)">
       <use xlink:href="#DejaVuSans-31"/>
       <use xlink:href="#DejaVuSans-30" transform="translate(63.623047 0)"/>
      </g>
     </g>
    </g>
    <g id="ytick_7">
     <g id="line2d_31">
      <path d="M 26.925 82.552014 
L 458.925 82.552014 
" clip-path="url(#p9398017dbf)" style="fill: none; stroke-dasharray: 4,1.6,0.8,1.6; stroke-dashoffset: 0; stroke: #b2b2b2; stroke-width: 0.8"/>
     </g>
     <g id="line2d_32">
      <g>
       <use xlink:href="#m3836321553" x="26.925" y="82.552014" style="stroke: #000000; stroke-width: 0.8"/>
      </g>
     </g>
     <g id="text_16">
      <!-- 12 -->
      <g transform="translate(7.2 86.351233) scale(0.1 -0.1)">
       <use xlink:href="#DejaVuSans-31"/>
       <use xlink:href="#DejaVuSans-32" transform="translate(63.623047 0)"/>
      </g>
     </g>
    </g>
    <g id="ytick_8">
     <g id="line2d_33">
      <path d="M 26.925 46.775616 
L 458.925 46.775616 
" clip-path="url(#p9398017dbf)" style="fill: none; stroke-dasharray: 4,1.6,0.8,1.6; stroke-dashoffset: 0; stroke: #b2b2b2; stroke-width: 0.8"/>
     </g>
     <g id="line2d_34">
      <g>
       <use xlink:href="#m3836321553" x="26.925" y="46.775616" style="stroke: #000000; stroke-width: 0.8"/>
      </g>
     </g>
     <g id="text_17">
      <!-- 14 -->
      <g transform="translate(7.2 50.574835) scale(0.1 -0.1)">
       <use xlink:href="#DejaVuSans-31"/>
       <use xlink:href="#DejaVuSans-34" transform="translate(63.623047 0)"/>
      </g>
     </g>
    </g>
    <g id="ytick_9">
     <g id="line2d_35">
      <path d="M 26.925 10.999219 
L 458.925 10.999219 
" clip-path="url(#p9398017dbf)" style="fill: none; stroke-dasharray: 4,1.6,0.8,1.6; stroke-dashoffset: 0; stroke: #b2b2b2; stroke-width: 0.8"/>
     </g>
     <g id="line2d_36">
      <g>
       <use xlink:href="#m3836321553" x="26.925" y="10.999219" style="stroke: #000000; stroke-width: 0.8"/>
      </g>
     </g>
     <g id="text_18">
      <!-- 16 -->
      <g transform="translate(7.2 14.798438) scale(0.1 -0.1)">
       <use xlink:href="#DejaVuSans-31"/>
       <use xlink:href="#DejaVuSans-36" transform="translate(63.623047 0)"/>
      </g>
     </g>
    </g>
   </g>
   <g id="line2d_37">
    <path d="M 26.925 297.210399 
L 37.945408 297.024141 
L 48.965816 296.465368 
L 59.986224 295.534079 
L 71.006633 294.230274 
L 82.027041 292.553954 
L 93.047449 290.505118 
L 104.067857 288.083767 
L 115.088265 285.2899 
L 126.108673 282.123517 
L 137.129082 278.584619 
L 148.14949 274.673206 
L 159.169898 270.389276 
L 170.190306 265.732831 
L 181.210714 260.703871 
L 192.231122 255.302395 
L 203.251531 249.528403 
L 214.271939 243.381896 
L 225.292347 236.862873 
L 236.312755 229.971334 
L 247.333163 222.70728 
L 258.353571 215.070711 
L 269.37398 207.061625 
L 280.394388 198.680025 
L 291.414796 189.925908 
L 302.435204 180.799276 
L 313.455612 171.300129 
L 324.47602 161.428465 
L 335.496429 151.184287 
L 346.516837 140.567592 
L 357.537245 129.578382 
L 368.557653 118.216657 
L 379.578061 106.482415 
L 390.598469 94.375659 
L 401.618878 81.896386 
L 412.639286 69.044598 
L 423.659694 55.820295 
L 434.680102 42.223476 
L 445.70051 28.254141 
L 456.720918 13.912291 
L 467.741327 -0.802075 
L 467.885903 -1 
" clip-path="url(#p9398017dbf)" style="fill: none; stroke-dasharray: 9.6,2.4,1.5,2.4; stroke-dashoffset: 0; stroke: #000080; stroke-width: 1.5"/>
    <defs>
     <path id="mb03fed7ad8" d="M 0 -2.5 
L -0.561285 -0.772542 
L -2.377641 -0.772542 
L -0.908178 0.295085 
L -1.469463 2.022542 
L -0 0.954915 
L 1.469463 2.022542 
L 0.908178 0.295085 
L 2.377641 -0.772542 
L 0.561285 -0.772542 
z
" style="stroke: #000000; stroke-opacity: 0; stroke-linejoin: bevel"/>
    </defs>
    <g clip-path="url(#p9398017dbf)">
     <use xlink:href="#mb03fed7ad8" x="26.925" y="297.210399" style="fill-opacity: 0; stroke: #000000; stroke-opacity: 0; stroke-linejoin: bevel"/>
     <use xlink:href="#mb03fed7ad8" x="37.945408" y="297.024141" style="fill-opacity: 0; stroke: #000000; stroke-opacity: 0; stroke-linejoin: bevel"/>
     <use xlink:href="#mb03fed7ad8" x="48.965816" y="296.465368" style="fill-opacity: 0; stroke: #000000; stroke-opacity: 0; stroke-linejoin: bevel"/>
     <use xlink:href="#mb03fed7ad8" x="59.986224" y="295.534079" style="fill-opacity: 0; stroke: #000000; stroke-opacity: 0; stroke-linejoin: bevel"/>
     <use xlink:href="#mb03fed7ad8" x="71.006633" y="294.230274" style="fill-opacity: 0; stroke: #000000; stroke-opacity: 0; stroke-linejoin: bevel"/>
     <use xlink:href="#mb03fed7ad8" x="82.027041" y="292.553954" style="fill-opacity: 0; stroke: #000000; stroke-opacity: 0; stroke-linejoin: bevel"/>
     <use xlink:href="#mb03fed7ad8" x="93.047449" y="290.505118" style="fill-opacity: 0; stroke: #000000; stroke-opacity: 0; stroke-linejoin: bevel"/>
     <use xlink:href="#mb03fed7ad8" x="104.067857" y="288.083767" style="fill-opacity: 0; stroke: #000000; stroke-opacity: 0; stroke-linejoin: bevel"/>
     <use xlink:href="#mb03fed7ad8" x="115.088265" y="285.2899" style="fill-opacity: 0; stroke: #000000; stroke-opacity: 0; stroke-linejoin: bevel"/>
     <use xlink:href="#mb03fed7ad8" x="126.108673" y="282.123517" style="fill-opacity: 0; stroke: #000000; stroke-opacity: 0; stroke-linejoin: bevel"/>
     <use xlink:href="#mb03fed7ad8" x="137.129082" y="278.584619" style="fill-opacity: 0; stroke: #000000; stroke-opacity: 0; stroke-linejoin: bevel"/>
     <use xlink:href="#mb03fed7ad8" x="148.14949" y="274.673206" style="fill-opacity: 0; stroke: #000000; stroke-opacity: 0; stroke-linejoin: bevel"/>
     <use xlink:href="#mb03fed7ad8" x="159.169898" y="270.389276" style="fill-opacity: 0; stroke: #000000; stroke-opacity: 0; stroke-linejoin: bevel"/>
     <use xlink:href="#mb03fed7ad8" x="170.190306" y="265.732831" style="fill-opacity: 0; stroke: #000000; stroke-opacity: 0; stroke-linejoin: bevel"/>
     <use xlink:href="#mb03fed7ad8" x="181.210714" y="260.703871" style="fill-opacity: 0; stroke: #000000; stroke-opacity: 0; stroke-linejoin: bevel"/>
     <use xlink:href="#mb03fed7ad8" x="192.231122" y="255.302395" style="fill-opacity: 0; stroke: #000000; stroke-opacity: 0; stroke-linejoin: bevel"/>
     <use xlink:href="#mb03fed7ad8" x="203.251531" y="249.528403" style="fill-opacity: 0; stroke: #000000; stroke-opacity: 0; stroke-linejoin: bevel"/>
     <use xlink:href="#mb03fed7ad8" x="214.271939" y="243.381896" style="fill-opacity: 0; stroke: #000000; stroke-opacity: 0; stroke-linejoin: bevel"/>
     <use xlink:href="#mb03fed7ad8" x="225.292347" y="236.862873" style="fill-opacity: 0; stroke: #000000; stroke-opacity: 0; stroke-linejoin: bevel"/>
     <use xlink:href="#mb03fed7ad8" x="236.312755" y="229.971334" style="fill-opacity: 0; stroke: #000000; stroke-opacity: 0; stroke-linejoin: bevel"/>
     <use xlink:href="#mb03fed7ad8" x="247.333163" y="222.70728" style="fill-opacity: 0; stroke: #000000; stroke-opacity: 0; stroke-linejoin: bevel"/>
     <use xlink:href="#mb03fed7ad8" x="258.353571" y="215.070711" style="fill-opacity: 0; stroke: #000000; stroke-opacity: 0; stroke-linejoin: bevel"/>
     <use xlink:href="#mb03fed7ad8" x="269.37398" y="207.061625" style="fill-opacity: 0; stroke: #000000; stroke-opacity: 0; stroke-linejoin: bevel"/>
     <use xlink:href="#mb03fed7ad8" x="280.394388" y="198.680025" style="fill-opacity: 0; stroke: #000000; stroke-opacity: 0; stroke-linejoin: bevel"/>
     <use xlink:href="#mb03fed7ad8" x="291.414796" y="189.925908" style="fill-opacity: 0; stroke: #000000; stroke-opacity: 0; stroke-linejoin: bevel"/>
     <use xlink:href="#mb03fed7ad8" x="302.435204" y="180.799276" style="fill-opacity: 0; stroke: #000000; stroke-opacity: 0; stroke-linejoin: bevel"/>
     <use xlink:href="#mb03fed7ad8" x="313.455612" y="171.300129" style="fill-opacity: 0; stroke: #000000; stroke-opacity: 0; stroke-linejoin: bevel"/>
     <use xlink:href="#mb03fed7ad8" x="324.47602" y="161.428465" style="fill-opacity: 0; stroke: #000000; stroke-opacity: 0; stroke-linejoin: bevel"/>
     <use xlink:href="#mb03fed7ad8" x="335.496429" y="151.184287" style="fill-opacity: 0; stroke: #000000; stroke-opacity: 0; stroke-linejoin: bevel"/>
     <use xlink:href="#mb03fed7ad8" x="346.516837" y="140.567592" style="fill-opacity: 0; stroke: #000000; stroke-opacity: 0; stroke-linejoin: bevel"/>
     <use xlink:href="#mb03fed7ad8" x="357.537245" y="129.578382" style="fill-opacity: 0; stroke: #000000; stroke-opacity: 0; stroke-linejoin: bevel"/>
     <use xlink:href="#mb03fed7ad8" x="368.557653" y="118.216657" style="fill-opacity: 0; stroke: #000000; stroke-opacity: 0; stroke-linejoin: bevel"/>
     <use xlink:href="#mb03fed7ad8" x="379.578061" y="106.482415" style="fill-opacity: 0; stroke: #000000; stroke-opacity: 0; stroke-linejoin: bevel"/>
     <use xlink:href="#mb03fed7ad8" x="390.598469" y="94.375659" style="fill-opacity: 0; stroke: #000000; stroke-opacity: 0; stroke-linejoin: bevel"/>
     <use xlink:href="#mb03fed7ad8" x="401.618878" y="81.896386" style="fill-opacity: 0; stroke: #000000; stroke-opacity: 0; stroke-linejoin: bevel"/>
     <use xlink:href="#mb03fed7ad8" x="412.639286" y="69.044598" style="fill-opacity: 0; stroke: #000000; stroke-opacity: 0; stroke-linejoin: bevel"/>
     <use xlink:href="#mb03fed7ad8" x="423.659694" y="55.820295" style="fill-opacity: 0; stroke: #000000; stroke-opacity: 0; stroke-linejoin: bevel"/>
     <use xlink:href="#mb03fed7ad8" x="434.680102" y="42.223476" style="fill-opacity: 0; stroke: #000000; stroke-opacity: 0; stroke-linejoin: bevel"/>
     <use xlink:href="#mb03fed7ad8" x="445.70051" y="28.254141" style="fill-opacity: 0; stroke: #000000; stroke-opacity: 0; stroke-linejoin: bevel"/>
     <use xlink:href="#mb03fed7ad8" x="456.720918" y="13.912291" style="fill-opacity: 0; stroke: #000000; stroke-opacity: 0; stroke-linejoin: bevel"/>
     <use xlink:href="#mb03fed7ad8" x="467.741327" y="-0.802075" style="fill-opacity: 0; stroke: #000000; stroke-opacity: 0; stroke-linejoin: bevel"/>
     <use xlink:href="#mb03fed7ad8" x="467.885903" y="-1" style="fill-opacity: 0; stroke: #000000; stroke-opacity: 0; stroke-linejoin: bevel"/>
    </g>
   </g>
   <g id="patch_3">
    <path d="M 26.925 298.999219 
L 26.925 10.999219 
" style="fill: none; stroke: #000000; stroke-width: 0.8; stroke-linejoin: miter; stroke-linecap: square"/>
   </g>
   <g id="patch_4">
    <path d="M 458.925 298.999219 
L 458.925 10.999219 
" style="fill: none; stroke: #000000; stroke-width: 0.8; stroke-linejoin: miter; stroke-linecap: square"/>
   </g>
   <g id="patch_5">
    <path d="M 26.925 298.999219 
L 458.925 298.999219 
" style="fill: none; stroke: #000000; stroke-width: 0.8; stroke-linejoin: miter; stroke-linecap: square"/>
   </g>
   <g id="patch_6">
    <path d="M 26.925 10.999219 
L 458.925 10.999219 
" style="fill: none; stroke: #000000; stroke-width: 0.8; stroke-linejoin: miter; stroke-linecap: square"/>
   </g>
  </g>
 </g>
 <defs>
  <clipPath id="p9398017dbf">
   <rect x="26.925" y="10.999219" width="432" height="288"/>
  </clipPath>
 </defs>
</svg>
