<?xml version="1.0" encoding="utf-8" standalone="no"?>
<!DOCTYPE svg PUBLIC "-//W3C//DTD SVG 1.1//EN"
  "http://www.w3.org/Graphics/SVG/1.1/DTD/svg11.dtd">
<svg xmlns:xlink="http://www.w3.org/1999/xlink" width="489.34375pt" height="347.874375pt" viewBox="0 0 489.34375 347.874375" xmlns="http://www.w3.org/2000/svg" version="1.1">
 <metadata>
  <rdf:RDF xmlns:dc="http://purl.org/dc/elements/1.1/" xmlns:cc="http://creativecommons.org/ns#" xmlns:rdf="http://www.w3.org/1999/02/22-rdf-syntax-ns#">
   <cc:Work>
    <dc:type rdf:resource="http://purl.org/dc/dcmitype/StillImage"/>
    <dc:date>2025-11-15T10:16:13.313379</dc:date>
    <dc:format>image/svg+xml</dc:format>
    <dc:creator>
     <cc:Agent>
      <dc:title>Matplotlib v3.10.7, https://matplotlib.org/</dc:title>
     </cc:Agent>
    </dc:creator>
   </cc:Work>
  </rdf:RDF>
 </metadata>
 <defs>
  <style type="text/css">*{stroke-linejoin: round; stroke-linecap: butt}</style>
 </defs>
 <g id="figure_1">
  <g id="patch_1">
   <path d="M 0 347.874375 
L 489.34375 347.874375 
L 489.34375 0 
L 0 0 
z
" style="fill: #ffffff"/>
  </g>
  <g id="axes_1">
   <g id="patch_2">
    <path d="M 50.14375 310.318125 
L 482.14375 310.318125 
L 482.14375 22.318125 
L 50.14375 22.318125 
z
" style="fill: #ffffff"/>
   </g>
   <g id="matplotlib.axis_1">
    <g id="xtick_1">
     <g id="line2d_1">
      <defs>
       <path id="mf2e67a6b26" d="M 0 0 
L 0 3.5 
" style="stroke: #000000; stroke-width: 0.8"/>
      </defs>
      <g>
       <use xlink:href="#mf2e67a6b26" x="101.613199" y="310.318125" style="stroke: #000000; stroke-width: 0.8"/>
      </g>
     </g>
     <g id="text_1">
      <!-- 10 -->
      <g transform="translate(95.250699 324.916562) scale(0.1 -0.1)">
       <defs>
        <path id="DejaVuSans-31" d="M 794 531 
L 1825 531 
L 1825 4091 
L 703 3866 
L 703 4441 
L 1819 4666 
L 2450 4666 
L 2450 531 
L 3481 531 
L 3481 0 
L 794 0 
L 794 531 
z
" transform="scale(0.015625)"/>
        <path id="DejaVuSans-30" d="M 2034 4250 
Q 1547 4250 1301 3770 
Q 1056 3291 1056 2328 
Q 1056 1369 1301 889 
Q 1547 409 2034 409 
Q 2525 409 2770 889 
Q 3016 1369 3016 2328 
Q 3016 3291 2770 3770 
Q 2525 4250 2034 4250 
z
M 2034 4750 
Q 2819 4750 3233 4129 
Q 3647 3509 3647 2328 
Q 3647 1150 3233 529 
Q 2819 -91 2034 -91 
Q 1250 -91 836 529 
Q 422 1150 422 2328 
Q 422 3509 836 4129 
Q 1250 4750 2034 4750 
z
" transform="scale(0.015625)"/>
       </defs>
       <use xlink:href="#DejaVuSans-31"/>
       <use xlink:href="#DejaVuSans-30" transform="translate(63.623047 0)"/>
      </g>
     </g>
    </g>
    <g id="xtick_2">
     <g id="line2d_2">
      <g>
       <use xlink:href="#mf2e67a6b26" x="173.148221" y="310.318125" style="stroke: #000000; stroke-width: 0.8"/>
      </g>
     </g>
     <g id="text_2">
      <!-- 15 -->
      <g transform="translate(166.785721 324.916562) scale(0.1 -0.1)">
       <defs>
        <path id="DejaVuSans-35" d="M 691 4666 
L 3169 4666 
L 3169 4134 
L 1269 4134 
L 1269 2991 
Q 1406 3038 1543 3061 
Q 1681 3084 1819 3084 
Q 2600 3084 3056 2656 
Q 3513 2228 3513 1497 
Q 3513 744 3044 326 
Q 2575 -91 1722 -91 
Q 1428 -91 1123 -41 
Q 819 9 494 109 
L 494 744 
Q 775 591 1075 516 
Q 1375 441 1709 441 
Q 2250 441 2565 725 
Q 2881 1009 2881 1497 
Q 2881 1984 2565 2268 
Q 2250 2553 1709 2553 
Q 1456 2553 1204 2497 
Q 953 2441 691 2322 
L 691 4666 
z
" transform="scale(0.015625)"/>
       </defs>
       <use xlink:href="#DejaVuSans-31"/>
       <use xlink:href="#DejaVuSans-35" transform="translate(63.623047 0)"/>
      </g>
     </g>
    </g>
    <g id="xtick_3">
     <g id="line2d_3">
      <g>
       <use xlink:href="#mf2e67a6b26" x="244.683243" y="310.318125" style="stroke: #000000; stroke-width: 0.8"/>
      </g>
     </g>
     <g id="text_3">
      <!-- 20 -->
      <g transform="translate(238.320743 324.916562) scale(0.1 -0.1)">
       <defs>
        <path id="DejaVuSans-32" d="M 1228 531 
L 3431 531 
L 3431 0 
L 469 0 
L 469 531 
Q 828 903 1448 1529 
Q 2069 2156 2228 2338 
Q 2531 2678 2651 2914 
Q 2772 3150 2772 3378 
Q 2772 3750 2511 3984 
Q 2250 4219 1831 4219 
Q 1534 4219 1204 4116 
Q 875 4013 500 3803 
L 500 4441 
Q 881 4594 1212 4672 
Q 1544 4750 1819 4750 
Q 2544 4750 2975 4387 
Q 3406 4025 3406 3419 
Q 3406 3131 3298 2873 
Q 3191 2616 2906 2266 
Q 2828 2175 2409 1742 
Q 1991 1309 1228 531 
z
" transform="scale(0.015625)"/>
       </defs>
       <use xlink:href="#DejaVuSans-32"/>
       <use xlink:href="#DejaVuSans-30" transform="translate(63.623047 0)"/>
      </g>
     </g>
    </g>
    <g id="xtick_4">
     <g id="line2d_4">
      <g>
       <use xlink:href="#mf2e67a6b26" x="316.218266" y="310.318125" style="stroke: #000000; stroke-width: 0.8"/>
      </g>
     </g>
     <g id="text_4">
      <!-- 25 -->
      <g transform="translate(309.855766 324.916562) scale(0.1 -0.1)">
       <use xlink:href="#DejaVuSans-32"/>
       <use xlink:href="#DejaVuSans-35" transform="translate(63.623047 0)"/>
      </g>
     </g>
    </g>
    <g id="xtick_5">
     <g id="line2d_5">
      <g>
       <use xlink:href="#mf2e67a6b26" x="387.753288" y="310.318125" style="stroke: #000000; stroke-width: 0.8"/>
      </g>
     </g>
     <g id="text_5">
      <!-- 30 -->
      <g transform="translate(381.390788 324.916562) scale(0.1 -0.1)">
       <defs>
        <path id="DejaVuSans-33" d="M 2597 2516 
Q 3050 2419 3304 2112 
Q 3559 1806 3559 1356 
Q 3559 666 3084 287 
Q 2609 -91 1734 -91 
Q 1441 -91 1130 -33 
Q 819 25 488 141 
L 488 750 
Q 750 597 1062 519 
Q 1375 441 1716 441 
Q 2309 441 2620 675 
Q 2931 909 2931 1356 
Q 2931 1769 2642 2001 
Q 2353 2234 1838 2234 
L 1294 2234 
L 1294 2753 
L 1863 2753 
Q 2328 2753 2575 2939 
Q 2822 3125 2822 3475 
Q 2822 3834 2567 4026 
Q 2313 4219 1838 4219 
Q 1578 4219 1281 4162 
Q 984 4106 628 3988 
L 628 4550 
Q 988 4650 1302 4700 
Q 1616 4750 1894 4750 
Q 2613 4750 3031 4423 
Q 3450 4097 3450 3541 
Q 3450 3153 3228 2886 
Q 3006 2619 2597 2516 
z
" transform="scale(0.015625)"/>
       </defs>
       <use xlink:href="#DejaVuSans-33"/>
       <use xlink:href="#DejaVuSans-30" transform="translate(63.623047 0)"/>
      </g>
     </g>
    </g>
    <g id="xtick_6">
     <g id="line2d_6">
      <g>
       <use xlink:href="#mf2e67a6b26" x="459.28831" y="310.318125" style="stroke: #000000; stroke-width: 0.8"/>
      </g>
     </g>
     <g id="text_6">
      <!-- 35 -->
      <g transform="translate(452.92581 324.916562) scale(0.1 -0.1)">
       <use xlink:href="#DejaVuSans-33"/>
       <use xlink:href="#DejaVuSans-35" transform="translate(63.623047 0)"/>
      </g>
     </g>
    </g>
    <g id="text_7">
     <!-- x -->
     <g transform="translate(263.184375 338.594687) scale(0.1 -0.1)">
      <defs>
       <path id="DejaVuSans-78" d="M 3513 3500 
L 2247 1797 
L 3578 0 
L 2900 0 
L 1881 1375 
L 863 0 
L 184 0 
L 1544 1831 
L 300 3500 
L 978 3500 
L 1906 2253 
L 2834 3500 
L 3513 3500 
z
" transform="scale(0.015625)"/>
      </defs>
      <use xlink:href="#DejaVuSans-78"/>
     </g>
    </g>
   </g>
   <g id="matplotlib.axis_2">
    <g id="ytick_1">
     <g id="line2d_7">
      <path d="M 50.14375 310.318125 
L 482.14375 310.318125 
" clip-path="url(#ped320f436c)" style="fill: none; stroke-dasharray: 4,1.6,0.8,1.6; stroke-dashoffset: 0; stroke: #b2b2b2; stroke-width: 0.8"/>
     </g>
     <g id="line2d_8">
      <defs>
       <path id="m707db1abd0" d="M 0 0 
L -3.5 0 
" style="stroke: #000000; stroke-width: 0.8"/>
      </defs>
      <g>
       <use xlink:href="#m707db1abd0" x="50.14375" y="310.318125" style="stroke: #000000; stroke-width: 0.8"/>
      </g>
     </g>
     <g id="text_8">
      <!-- 0.00 -->
      <g transform="translate(20.878125 314.117344) scale(0.1 -0.1)">
       <defs>
        <path id="DejaVuSans-2e" d="M 684 794 
L 1344 794 
L 1344 0 
L 684 0 
L 684 794 
z
" transform="scale(0.015625)"/>
       </defs>
       <use xlink:href="#DejaVuSans-30"/>
       <use xlink:href="#DejaVuSans-2e" transform="translate(63.623047 0)"/>
       <use xlink:href="#DejaVuSans-30" transform="translate(95.410156 0)"/>
       <use xlink:href="#DejaVuSans-30" transform="translate(159.033203 0)"/>
      </g>
     </g>
    </g>
    <g id="ytick_2">
     <g id="line2d_9">
      <path d="M 50.14375 252.718125 
L 482.14375 252.718125 
" clip-path="url(#ped320f436c)" style="fill: none; stroke-dasharray: 4,1.6,0.8,1.6; stroke-dashoffset: 0; stroke: #b2b2b2; stroke-width: 0.8"/>
     </g>
     <g id="line2d_10">
      <g>
       <use xlink:href="#m707db1abd0" x="50.14375" y="252.718125" style="stroke: #000000; stroke-width: 0.8"/>
      </g>
     </g>
     <g id="text_9">
      <!-- 0.02 -->
      <g transform="translate(20.878125 256.517344) scale(0.1 -0.1)">
       <use xlink:href="#DejaVuSans-30"/>
       <use xlink:href="#DejaVuSans-2e" transform="translate(63.623047 0)"/>
       <use xlink:href="#DejaVuSans-30" transform="translate(95.410156 0)"/>
       <use xlink:href="#DejaVuSans-32" transform="translate(159.033203 0)"/>
      </g>
     </g>
    </g>
    <g id="ytick_3">
     <g id="line2d_11">
      <path d="M 50.14375 195.118125 
L 482.14375 195.118125 
" clip-path="url(#ped320f436c)" style="fill: none; stroke-dasharray: 4,1.6,0.8,1.6; stroke-dashoffset: 0; stroke: #b2b2b2; stroke-width: 0.8"/>
     </g>
     <g id="line2d_12">
      <g>
       <use xlink:href="#m707db1abd0" x="50.14375" y="195.118125" style="stroke: #000000; stroke-width: 0.8"/>
      </g>
     </g>
     <g id="text_10">
      <!-- 0.04 -->
      <g transform="translate(20.878125 198.917344) scale(0.1 -0.1)">
       <defs>
        <path id="DejaVuSans-34" d="M 2419 4116 
L 825 1625 
L 2419 1625 
L 2419 4116 
z
M 2253 4666 
L 3047 4666 
L 3047 1625 
L 3713 1625 
L 3713 1100 
L 3047 1100 
L 3047 0 
L 2419 0 
L 2419 1100 
L 313 1100 
L 313 1709 
L 2253 4666 
z
" transform="scale(0.015625)"/>
       </defs>
       <use xlink:href="#DejaVuSans-30"/>
       <use xlink:href="#DejaVuSans-2e" transform="translate(63.623047 0)"/>
       <use xlink:href="#DejaVuSans-30" transform="translate(95.410156 0)"/>
       <use xlink:href="#DejaVuSans-34" transform="translate(159.033203 0)"/>
      </g>
     </g>
    </g>
    <g id="ytick_4">
     <g id="line2d_13">
      <path d="M 50.14375 137.518125 
L 482.14375 137.518125 
" clip-path="url(#ped320f436c)" style="fill: none; stroke-dasharray: 4,1.6,0.8,1.6; stroke-dashoffset: 0; stroke: #b2b2b2; stroke-width: 0.8"/>
     </g>
     <g id="line2d_14">
      <g>
       <use xlink:href="#m707db1abd0" x="50.14375" y="137.518125" style="stroke: #000000; stroke-width: 0.8"/>
      </g>
     </g>
     <g id="text_11">
      <!-- 0.06 -->
      <g transform="translate(20.878125 141.317344) scale(0.1 -0.1)">
       <defs>
        <path id="DejaVuSans-36" d="M 2113 2584 
Q 1688 2584 1439 2293 
Q 1191 2003 1191 1497 
Q 1191 994 1439 701 
Q 1688 409 2113 409 
Q 2538 409 2786 701 
Q 3034 994 3034 1497 
Q 3034 2003 2786 2293 
Q 2538 2584 2113 2584 
z
M 3366 4563 
L 3366 3988 
Q 3128 4100 2886 4159 
Q 2644 4219 2406 4219 
Q 1781 4219 1451 3797 
Q 1122 3375 1075 2522 
Q 1259 2794 1537 2939 
Q 1816 3084 2150 3084 
Q 2853 3084 3261 2657 
Q 3669 2231 3669 1497 
Q 3669 778 3244 343 
Q 2819 -91 2113 -91 
Q 1303 -91 875 529 
Q 447 1150 447 2328 
Q 447 3434 972 4092 
Q 1497 4750 2381 4750 
Q 2619 4750 2861 4703 
Q 3103 4656 3366 4563 
z
" transform="scale(0.015625)"/>
       </defs>
       <use xlink:href="#DejaVuSans-30"/>
       <use xlink:href="#DejaVuSans-2e" transform="translate(63.623047 0)"/>
       <use xlink:href="#DejaVuSans-30" transform="translate(95.410156 0)"/>
       <use xlink:href="#DejaVuSans-36" transform="translate(159.033203 0)"/>
      </g>
     </g>
    </g>
    <g id="ytick_5">
     <g id="line2d_15">
      <path d="M 50.14375 79.918125 
L 482.14375 79.918125 
" clip-path="url(#ped320f436c)" style="fill: none; stroke-dasharray: 4,1.6,0.8,1.6; stroke-dashoffset: 0; stroke: #b2b2b2; stroke-width: 0.8"/>
     </g>
     <g id="line2d_16">
      <g>
       <use xlink:href="#m707db1abd0" x="50.14375" y="79.918125" style="stroke: #000000; stroke-width: 0.8"/>
      </g>
     </g>
     <g id="text_12">
      <!-- 0.08 -->
      <g transform="translate(20.878125 83.717344) scale(0.1 -0.1)">
       <defs>
        <path id="DejaVuSans-38" d="M 2034 2216 
Q 1584 2216 1326 1975 
Q 1069 1734 1069 1313 
Q 1069 891 1326 650 
Q 1584 409 2034 409 
Q 2484 409 2743 651 
Q 3003 894 3003 1313 
Q 3003 1734 2745 1975 
Q 2488 2216 2034 2216 
z
M 1403 2484 
Q 997 2584 770 2862 
Q 544 3141 544 3541 
Q 544 4100 942 4425 
Q 1341 4750 2034 4750 
Q 2731 4750 3128 4425 
Q 3525 4100 3525 3541 
Q 3525 3141 3298 2862 
Q 3072 2584 2669 2484 
Q 3125 2378 3379 2068 
Q 3634 1759 3634 1313 
Q 3634 634 3220 271 
Q 2806 -91 2034 -91 
Q 1263 -91 848 271 
Q 434 634 434 1313 
Q 434 1759 690 2068 
Q 947 2378 1403 2484 
z
M 1172 3481 
Q 1172 3119 1398 2916 
Q 1625 2713 2034 2713 
Q 2441 2713 2670 2916 
Q 2900 3119 2900 3481 
Q 2900 3844 2670 4047 
Q 2441 4250 2034 4250 
Q 1625 4250 1398 4047 
Q 1172 3844 1172 3481 
z
" transform="scale(0.015625)"/>
       </defs>
       <use xlink:href="#DejaVuSans-30"/>
       <use xlink:href="#DejaVuSans-2e" transform="translate(63.623047 0)"/>
       <use xlink:href="#DejaVuSans-30" transform="translate(95.410156 0)"/>
       <use xlink:href="#DejaVuSans-38" transform="translate(159.033203 0)"/>
      </g>
     </g>
    </g>
    <g id="ytick_6">
     <g id="line2d_17">
      <path d="M 50.14375 22.318125 
L 482.14375 22.318125 
" clip-path="url(#ped320f436c)" style="fill: none; stroke-dasharray: 4,1.6,0.8,1.6; stroke-dashoffset: 0; stroke: #b2b2b2; stroke-width: 0.8"/>
     </g>
     <g id="line2d_18">
      <g>
       <use xlink:href="#m707db1abd0" x="50.14375" y="22.318125" style="stroke: #000000; stroke-width: 0.8"/>
      </g>
     </g>
     <g id="text_13">
      <!-- 0.10 -->
      <g transform="translate(20.878125 26.117344) scale(0.1 -0.1)">
       <use xlink:href="#DejaVuSans-30"/>
       <use xlink:href="#DejaVuSans-2e" transform="translate(63.623047 0)"/>
       <use xlink:href="#DejaVuSans-31" transform="translate(95.410156 0)"/>
       <use xlink:href="#DejaVuSans-30" transform="translate(159.033203 0)"/>
      </g>
     </g>
    </g>
    <g id="text_14">
     <!-- p(x) -->
     <g transform="translate(14.798437 176.353281) rotate(-90) scale(0.1 -0.1)">
      <defs>
       <path id="DejaVuSans-70" d="M 1159 525 
L 1159 -1331 
L 581 -1331 
L 581 3500 
L 1159 3500 
L 1159 2969 
Q 1341 3281 1617 3432 
Q 1894 3584 2278 3584 
Q 2916 3584 3314 3078 
Q 3713 2572 3713 1747 
Q 3713 922 3314 415 
Q 2916 -91 2278 -91 
Q 1894 -91 1617 61 
Q 1341 213 1159 525 
z
M 3116 1747 
Q 3116 2381 2855 2742 
Q 2594 3103 2138 3103 
Q 1681 3103 1420 2742 
Q 1159 2381 1159 1747 
Q 1159 1113 1420 752 
Q 1681 391 2138 391 
Q 2594 391 2855 752 
Q 3116 1113 3116 1747 
z
" transform="scale(0.015625)"/>
       <path id="DejaVuSans-28" d="M 1984 4856 
Q 1566 4138 1362 3434 
Q 1159 2731 1159 2009 
Q 1159 1288 1364 580 
Q 1569 -128 1984 -844 
L 1484 -844 
Q 1016 -109 783 600 
Q 550 1309 550 2009 
Q 550 2706 781 3412 
Q 1013 4119 1484 4856 
L 1984 4856 
z
" transform="scale(0.015625)"/>
       <path id="DejaVuSans-29" d="M 513 4856 
L 1013 4856 
Q 1481 4119 1714 3412 
Q 1947 2706 1947 2009 
Q 1947 1309 1714 600 
Q 1481 -109 1013 -844 
L 513 -844 
Q 928 -128 1133 580 
Q 1338 1288 1338 2009 
Q 1338 2731 1133 3434 
Q 928 4138 513 4856 
z
" transform="scale(0.015625)"/>
      </defs>
      <use xlink:href="#DejaVuSans-70"/>
      <use xlink:href="#DejaVuSans-28" transform="translate(63.476562 0)"/>
      <use xlink:href="#DejaVuSans-78" transform="translate(102.490234 0)"/>
      <use xlink:href="#DejaVuSans-29" transform="translate(161.669922 0)"/>
     </g>
    </g>
   </g>
   <g id="patch_3">
    <path d="M 69.780114 310.318125 
L 76.218266 310.318125 
L 76.218266 306.549158 
L 69.780114 306.549158 
z
" clip-path="url(#ped320f436c)"/>
   </g>
   <g id="patch_4">
    <path d="M 84.087118 310.318125 
L 90.52527 310.318125 
L 90.52527 301.942644 
L 84.087118 301.942644 
z
" clip-path="url(#ped320f436c)"/>
   </g>
   <g id="patch_5">
    <path d="M 98.394123 310.318125 
L 104.832275 310.318125 
L 104.832275 293.567162 
L 98.394123 293.567162 
z
" clip-path="url(#ped320f436c)"/>
   </g>
   <g id="patch_6">
    <path d="M 112.701127 310.318125 
L 119.139279 310.318125 
L 119.139279 279.861829 
L 112.701127 279.861829 
z
" clip-path="url(#ped320f436c)"/>
   </g>
   <g id="patch_7">
    <path d="M 127.008132 310.318125 
L 133.446284 310.318125 
L 133.446284 259.557632 
L 127.008132 259.557632 
z
" clip-path="url(#ped320f436c)"/>
   </g>
   <g id="patch_8">
    <path d="M 141.315136 310.318125 
L 147.753288 310.318125 
L 147.753288 232.225058 
L 141.315136 232.225058 
z
" clip-path="url(#ped320f436c)"/>
   </g>
   <g id="patch_9">
    <path d="M 155.62214 310.318125 
L 162.060292 310.318125 
L 162.060292 198.756601 
L 155.62214 198.756601 
z
" clip-path="url(#ped320f436c)"/>
   </g>
   <g id="patch_10">
    <path d="M 169.929145 310.318125 
L 176.367297 310.318125 
L 176.367297 161.569427 
L 169.929145 161.569427 
z
" clip-path="url(#ped320f436c)"/>
   </g>
   <g id="patch_11">
    <path d="M 184.236149 310.318125 
L 190.674301 310.318125 
L 190.674301 124.382252 
L 184.236149 124.382252 
z
" clip-path="url(#ped320f436c)"/>
   </g>
   <g id="patch_12">
    <path d="M 198.543154 310.318125 
L 204.981306 310.318125 
L 204.981306 91.570039 
L 198.543154 91.570039 
z
" clip-path="url(#ped320f436c)"/>
   </g>
   <g id="patch_13">
    <path d="M 212.850158 310.318125 
L 219.28831 310.318125 
L 219.28831 67.264697 
L 212.850158 67.264697 
z
" clip-path="url(#ped320f436c)"/>
   </g>
   <g id="patch_14">
    <path d="M 227.157163 310.318125 
L 233.595315 310.318125 
L 233.595315 54.472411 
L 227.157163 54.472411 
z
" clip-path="url(#ped320f436c)"/>
   </g>
   <g id="patch_15">
    <path d="M 241.464167 310.318125 
L 247.902319 310.318125 
L 247.902319 54.472411 
L 241.464167 54.472411 
z
" clip-path="url(#ped320f436c)"/>
   </g>
   <g id="patch_16">
    <path d="M 255.771172 310.318125 
L 262.209324 310.318125 
L 262.209324 66.65554 
L 255.771172 66.65554 
z
" clip-path="url(#ped320f436c)"/>
   </g>
   <g id="patch_17">
    <path d="M 270.078176 310.318125 
L 276.516328 310.318125 
L 276.516328 88.806684 
L 270.078176 88.806684 
z
" clip-path="url(#ped320f436c)"/>
   </g>
   <g id="patch_18">
    <path d="M 284.385181 310.318125 
L 290.823333 310.318125 
L 290.823333 117.699481 
L 284.385181 117.699481 
z
" clip-path="url(#ped320f436c)"/>
   </g>
   <g id="patch_19">
    <path d="M 298.692185 310.318125 
L 305.130337 310.318125 
L 305.130337 149.802588 
L 298.692185 149.802588 
z
" clip-path="url(#ped320f436c)"/>
   </g>
   <g id="patch_20">
    <path d="M 312.99919 310.318125 
L 319.437342 310.318125 
L 319.437342 181.905696 
L 312.99919 181.905696 
z
" clip-path="url(#ped320f436c)"/>
   </g>
   <g id="patch_21">
    <path d="M 327.306194 310.318125 
L 333.744346 310.318125 
L 333.744346 211.539333 
L 327.306194 211.539333 
z
" clip-path="url(#ped320f436c)"/>
   </g>
   <g id="patch_22">
    <path d="M 341.613199 310.318125 
L 348.051351 310.318125 
L 348.051351 237.14865 
L 341.613199 237.14865 
z
" clip-path="url(#ped320f436c)"/>
   </g>
   <g id="patch_23">
    <path d="M 355.920203 310.318125 
L 362.358355 310.318125 
L 362.358355 258.054214 
L 355.920203 258.054214 
z
" clip-path="url(#ped320f436c)"/>
   </g>
   <g id="patch_24">
    <path d="M 370.227208 310.318125 
L 376.66536 310.318125 
L 376.66536 274.274048 
L 370.227208 274.274048 
z
" clip-path="url(#ped320f436c)"/>
   </g>
   <g id="patch_25">
    <path d="M 384.534212 310.318125 
L 390.972364 310.318125 
L 390.972364 286.288741 
L 384.534212 286.288741 
z
" clip-path="url(#ped320f436c)"/>
   </g>
   <g id="patch_26">
    <path d="M 398.841216 310.318125 
L 405.279368 310.318125 
L 405.279368 294.815296 
L 398.841216 294.815296 
z
" clip-path="url(#ped320f436c)"/>
   </g>
   <g id="patch_27">
    <path d="M 413.148221 310.318125 
L 419.586373 310.318125 
L 419.586373 300.628857 
L 413.148221 300.628857 
z
" clip-path="url(#ped320f436c)"/>
   </g>
   <g id="patch_28">
    <path d="M 427.455225 310.318125 
L 433.893377 310.318125 
L 433.893377 304.445841 
L 427.455225 304.445841 
z
" clip-path="url(#ped320f436c)"/>
   </g>
   <g id="patch_29">
    <path d="M 441.76223 310.318125 
L 448.200382 310.318125 
L 448.200382 306.863841 
L 441.76223 306.863841 
z
" clip-path="url(#ped320f436c)"/>
   </g>
   <g id="patch_30">
    <path d="M 456.069234 310.318125 
L 462.507386 310.318125 
L 462.507386 308.344248 
L 456.069234 308.344248 
z
" clip-path="url(#ped320f436c)"/>
   </g>
   <g id="patch_31">
    <path d="M 50.14375 310.318125 
L 50.14375 22.318125 
" style="fill: none; stroke: #000000; stroke-width: 0.8; stroke-linejoin: miter; stroke-linecap: square"/>
   </g>
   <g id="patch_32">
    <path d="M 482.14375 310.318125 
L 482.14375 22.318125 
" style="fill: none; stroke: #000000; stroke-width: 0.8; stroke-linejoin: miter; stroke-linecap: square"/>
   </g>
   <g id="patch_33">
    <path d="M 50.14375 310.318125 
L 482.14375 310.318125 
" style="fill: none; stroke: #000000; stroke-width: 0.8; stroke-linejoin: miter; stroke-linecap: square"/>
   </g>
   <g id="patch_34">
    <path d="M 50.14375 22.318125 
L 482.14375 22.318125 
" style="fill: none; stroke: #000000; stroke-width: 0.8; stroke-linejoin: miter; stroke-linecap: square"/>
   </g>
   <g id="text_15">
    <!-- $Poisson(\lambda =20.0)$ -->
    <g transform="translate(214.48375 16.318125) scale(0.12 -0.12)">
     <defs>
      <path id="DejaVuSans-Oblique-50" d="M 1081 4666 
L 2541 4666 
Q 3178 4666 3512 4369 
Q 3847 4072 3847 3500 
Q 3847 2731 3353 2303 
Q 2859 1875 1966 1875 
L 1172 1875 
L 806 0 
L 172 0 
L 1081 4666 
z
M 1613 4147 
L 1275 2394 
L 2069 2394 
Q 2606 2394 2893 2669 
Q 3181 2944 3181 3456 
Q 3181 3784 2986 3965 
Q 2791 4147 2438 4147 
L 1613 4147 
z
" transform="scale(0.015625)"/>
      <path id="DejaVuSans-Oblique-6f" d="M 1625 -91 
Q 1009 -91 651 289 
Q 294 669 294 1325 
Q 294 1706 417 2101 
Q 541 2497 738 2766 
Q 1047 3184 1428 3384 
Q 1809 3584 2291 3584 
Q 2888 3584 3255 3212 
Q 3622 2841 3622 2241 
Q 3622 1825 3500 1412 
Q 3378 1000 3181 728 
Q 2875 309 2494 109 
Q 2113 -91 1625 -91 
z
M 891 1344 
Q 891 869 1089 633 
Q 1288 397 1691 397 
Q 2269 397 2648 901 
Q 3028 1406 3028 2181 
Q 3028 2634 2825 2865 
Q 2622 3097 2228 3097 
Q 1903 3097 1650 2945 
Q 1397 2794 1197 2484 
Q 1050 2253 970 1956 
Q 891 1659 891 1344 
z
" transform="scale(0.015625)"/>
      <path id="DejaVuSans-Oblique-69" d="M 1172 4863 
L 1747 4863 
L 1606 4134 
L 1031 4134 
L 1172 4863 
z
M 909 3500 
L 1484 3500 
L 800 0 
L 225 0 
L 909 3500 
z
" transform="scale(0.015625)"/>
      <path id="DejaVuSans-Oblique-73" d="M 3200 3397 
L 3091 2853 
Q 2863 2978 2609 3040 
Q 2356 3103 2088 3103 
Q 1634 3103 1373 2948 
Q 1113 2794 1113 2528 
Q 1113 2219 1719 2053 
Q 1766 2041 1788 2034 
L 1972 1978 
Q 2547 1819 2739 1644 
Q 2931 1469 2931 1166 
Q 2931 609 2489 259 
Q 2047 -91 1331 -91 
Q 1053 -91 747 -37 
Q 441 16 72 128 
L 184 722 
Q 500 559 806 475 
Q 1113 391 1394 391 
Q 1816 391 2080 572 
Q 2344 753 2344 1031 
Q 2344 1331 1650 1516 
L 1591 1531 
L 1394 1581 
Q 956 1697 753 1886 
Q 550 2075 550 2369 
Q 550 2928 970 3256 
Q 1391 3584 2113 3584 
Q 2397 3584 2667 3537 
Q 2938 3491 3200 3397 
z
" transform="scale(0.015625)"/>
      <path id="DejaVuSans-Oblique-6e" d="M 3566 2113 
L 3156 0 
L 2578 0 
L 2988 2091 
Q 3016 2238 3031 2350 
Q 3047 2463 3047 2528 
Q 3047 2791 2881 2937 
Q 2716 3084 2419 3084 
Q 1956 3084 1622 2776 
Q 1288 2469 1184 1941 
L 800 0 
L 225 0 
L 903 3500 
L 1478 3500 
L 1363 2950 
Q 1603 3253 1940 3418 
Q 2278 3584 2650 3584 
Q 3113 3584 3367 3334 
Q 3622 3084 3622 2631 
Q 3622 2519 3608 2391 
Q 3594 2263 3566 2113 
z
" transform="scale(0.015625)"/>
      <path id="DejaVuSans-Oblique-3bb" d="M 2350 4316 
L 3125 0 
L 2516 0 
L 2038 2588 
L 328 0 
L -281 0 
L 1903 3356 
L 1794 3975 
Q 1725 4369 1391 4369 
L 1091 4369 
L 1184 4863 
L 1550 4856 
Q 2253 4847 2350 4316 
z
" transform="scale(0.015625)"/>
      <path id="DejaVuSans-3d" d="M 678 2906 
L 4684 2906 
L 4684 2381 
L 678 2381 
L 678 2906 
z
M 678 1631 
L 4684 1631 
L 4684 1100 
L 678 1100 
L 678 1631 
z
" transform="scale(0.015625)"/>
     </defs>
     <use xlink:href="#DejaVuSans-Oblique-50" transform="translate(0 0.015625)"/>
     <use xlink:href="#DejaVuSans-Oblique-6f" transform="translate(60.302734 0.015625)"/>
     <use xlink:href="#DejaVuSans-Oblique-69" transform="translate(121.484375 0.015625)"/>
     <use xlink:href="#DejaVuSans-Oblique-73" transform="translate(149.267578 0.015625)"/>
     <use xlink:href="#DejaVuSans-Oblique-73" transform="translate(201.367188 0.015625)"/>
     <use xlink:href="#DejaVuSans-Oblique-6f" transform="translate(253.466797 0.015625)"/>
     <use xlink:href="#DejaVuSans-Oblique-6e" transform="translate(314.648438 0.015625)"/>
     <use xlink:href="#DejaVuSans-28" transform="translate(378.027344 0.015625)"/>
     <use xlink:href="#DejaVuSans-Oblique-3bb" transform="translate(417.041016 0.015625)"/>
     <use xlink:href="#DejaVuSans-3d" transform="translate(495.703125 0.015625)"/>
     <use xlink:href="#DejaVuSans-32" transform="translate(598.974609 0.015625)"/>
     <use xlink:href="#DejaVuSans-30" transform="translate(662.597656 0.015625)"/>
     <use xlink:href="#DejaVuSans-2e" transform="translate(726.220703 0.015625)"/>
     <use xlink:href="#DejaVuSans-30" transform="translate(758.007812 0.015625)"/>
     <use xlink:href="#DejaVuSans-29" transform="translate(821.630859 0.015625)"/>
    </g>
   </g>
  </g>
 </g>
 <defs>
  <clipPath id="ped320f436c">
   <rect x="50.14375" y="22.318125" width="432" height="288"/>
  </clipPath>
 </defs>
</svg>
